{"bpm":120.0,"chord_track":{"instrument":"built_in_grand_piano","mute":false,"pan":0.0,"solo":false,"volume":0.8999999761581421},"looping":{"_end":5.0,"_start":0.0},"name":"","scale":{"root":0,"type":{"name":"Major","steps":[2,2,1,2,2,2,1]}},"sections":[{"children":{"clips":{"chords":[{"chord":{"intervals":[4,7,9],"root":0},"length":0.375,"voicing":[{"length":0.375,"pitch":48,"position":0.0,"velocity":1.0},{"length":0.375,"pitch":52,"position":0.0,"velocity":1.0},{"length":0.375,"pitch":55,"position":0.0,"velocity":1.0},{"length":0.375,"pitch":57,"position":0.0,"velocity":1.0}]},{"chord":{"intervals":[4,7,11],"root":0},"length":0.375,"voicing":[{"length":0.375,"pitch":48,"position":0.0,"velocity":1.0},{"length":0.375,"pitch":52,"position":0.0,"velocity":1.0},{"length":0.375,"pitch":55,"position":0.0,"velocity":1.0},{"length":0.375,"pitch":59,"position":0.0,"velocity":1.0}]},{"chord":{"intervals":[4,7],"root":0},"length":0.375,"voicing":[{"length":0.375,"pitch":48,"position":0.0,"velocity":1.0},{"length":0.375,"pitch":52,"position":0.0,"velocity":1.0},{"length":0.375,"pitch":55,"position":0.0,"velocity":1.0}]},{"chord":{"intervals":[4,7,9],"root":0},"length":0.375,"voicing":[{"length":0.375,"pitch":48,"position":0.0,"velocity":1.0},{"length":0.375,"pitch":52,"position":0.0,"velocity":1.0},{"length":0.375,"pitch":55,"position":0.0,"velocity":1.0},{"length":0.375,"pitch":57,"position":0.0,"velocity":1.0}]},{"chord":{"intervals":[4,7,11],"root":0},"length":0.375,"voicing":[{"length":0.375,"pitch":48,"position":0.0,"velocity":1.0},{"length":0.375,"pitch":52,"position":0.0,"velocity":1.0},{"length":0.375,"pitch":55,"position":0.0,"velocity":1.0},{"length":0.375,"pitch":59,"position":0.0,"velocity":1.0}]},{"chord":{"intervals":[4,7,11],"root":0},"length":0.375,"voicing":[{"length":0.375,"pitch":48,"position":0.0,"velocity":1.0},{"length":0.375,"pitch":52,"position":0.0,"velocity":1.0},{"length":0.375,"pitch":55,"position":0.0,"velocity":1.0},{"length":0.375,"pitch":59,"position":0.0,"velocity":1.0}]},{"chord":{"intervals":[4,7],"root":0},"length":0.375,"voicing":[{"length":0.375,"pitch":48,"position":0.0,"velocity":1.0},{"length":0.375,"pitch":52,"position":0.0,"velocity":1.0},{"length":0.375,"pitch":55,"position":0.0,"velocity":1.0}]},{"chord":{"intervals":[4,7,9],"root":0},"length":0.375,"voicing":[{"length":0.375,"pitch":48,"position":0.0,"velocity":1.0},{"length":0.375,"pitch":52,"position":0.0,"velocity":1.0},{"length":0.375,"pitch":55,"position":0.0,"velocity":1.0},{"length":0.375,"pitch":57,"position":0.0,"velocity":1.0}]},{"chord":{"intervals":[4,7,11],"root":0},"length":0.375,"voicing":[{"length":0.375,"pitch":48,"position":0.0,"velocity":1.0},{"length":0.375,"pitch":52,"position":0.0,"velocity":1.0},{"length":0.375,"pitch":55,"position":0.0,"velocity":1.0},{"length":0.375,"pitch":59,"position":0.0,"velocity":1.0}]},{"chord":{"intervals":[3,7,9,14],"root":2},"length":0.375,"voicing":[{"length":0.375,"pitch":50,"position":0.0,"velocity":1.0},{"length":0.375,"pitch":53,"position":0.0,"velocity":1.0},{"length":0.375,"pitch":57,"position":0.0,"velocity":1.0},{"length":0.375,"pitch":59,"position":0.0,"velocity":1.0},{"length":0.375,"pitch":64,"position":0.0,"velocity":1.0}]},{"chord":{"intervals":[4,7,9],"root":5},"length":0.375,"voicing":[{"length":0.375,"pitch":53,"position":0.0,"velocity":1.0},{"length":0.375,"pitch":57,"position":0.0,"velocity":1.0},{"length":0.375,"pitch":60,"position":0.0,"velocity":1.0},{"length":0.375,"pitch":62,"position":0.0,"velocity":1.0}]},{"chord":{"intervals":[4,7,11],"root":5},"length":0.375,"voicing":[{"length":0.375,"pitch":53,"position":0.0,"velocity":1.0},{"length":0.375,"pitch":57,"position":0.0,"velocity":1.0},{"length":0.375,"pitch":60,"position":0.0,"velocity":1.0},{"length":0.375,"pitch":64,"position":0.0,"velocity":1.0}]},{"chord":{"intervals":[4,7,9,14],"root":5},"length":0.25,"voicing":[{"length":0.25,"pitch":53,"position":0.0,"velocity":1.0},{"length":0.25,"pitch":57,"position":0.0,"velocity":1.0},{"length":0.25,"pitch":60,"position":0.0,"velocity":1.0},{"length":0.25,"pitch":62,"position":0.0,"velocity":1.0},{"length":0.25,"pitch":67,"position":0.0,"velocity":1.0}]}],"clipByTrack":[]}},"color":{"a":255,"b":160,"g":110,"r":55},"id":3,"length":5.0,"name":"New Section","scale":null},{"children":{"clips":{"chords":[{"chord":{"intervals":[4,7,9],"root":0},"length":0.375,"voicing":[{"length":0.375,"pitch":48,"position":0.0,"velocity":1.0},{"length":0.375,"pitch":52,"position":0.0,"velocity":1.0},{"length":0.375,"pitch":55,"position":0.0,"velocity":1.0},{"length":0.375,"pitch":57,"position":0.0,"velocity":1.0}]},{"chord":{"intervals":[4,7,11],"root":0},"length":0.25,"voicing":[{"length":0.25,"pitch":48,"position":0.0,"velocity":1.0},{"length":0.25,"pitch":52,"position":0.0,"velocity":1.0},{"length":0.25,"pitch":55,"position":0.0,"velocity":1.0},{"length":0.25,"pitch":59,"position":0.0,"velocity":1.0}]},{"chord":{"intervals":[4,7],"root":0},"length":0.25,"voicing":[{"length":0.25,"pitch":48,"position":0.0,"velocity":1.0},{"length":0.25,"pitch":52,"position":0.0,"velocity":1.0},{"length":0.25,"pitch":55,"position":0.0,"velocity":1.0}]},{"chord":{"intervals":[4,7,9],"root":0},"length":0.25,"voicing":[{"length":0.25,"pitch":48,"position":0.0,"velocity":1.0},{"length":0.25,"pitch":52,"position":0.0,"velocity":1.0},{"length":0.25,"pitch":55,"position":0.0,"velocity":1.0},{"length":0.25,"pitch":57,"position":0.0,"velocity":1.0}]},{"chord":{"intervals":[4,7,11],"root":0},"length":0.375,"voicing":[{"length":0.375,"pitch":48,"position":0.0,"velocity":1.0},{"length":0.375,"pitch":52,"position":0.0,"velocity":1.0},{"length":0.375,"pitch":55,"position":0.0,"velocity":1.0},{"length":0.375,"pitch":59,"position":0.0,"velocity":1.0}]},{"chord":{"intervals":[4,7,11],"root":0},"length":0.25,"voicing":[{"length":0.25,"pitch":48,"position":0.0,"velocity":1.0},{"length":0.25,"pitch":52,"position":0.0,"velocity":1.0},{"length":0.25,"pitch":55,"position":0.0,"velocity":1.0},{"length":0.25,"pitch":59,"position":0.0,"velocity":1.0}]},{"chord":{"intervals":[4,7],"root":0},"length":0.25,"voicing":[{"length":0.25,"pitch":48,"position":0.0,"velocity":1.0},{"length":0.25,"pitch":52,"position":0.0,"velocity":1.0},{"length":0.25,"pitch":55,"position":0.0,"velocity":1.0}]}],"clipByTrack":[]}},"color":{"a":255,"b":136,"g":55,"r":160},"id":444,"length":4.0,"name":"New Section","scale":null}],"tracks":[{"id":445,"instrument":"built_in_grand_piano","mute":false,"name":"New Track","pan":0.0,"solo":false,"volume":0.5766630172729492},{"id":446,"instrument":"built_in_grand_piano","mute":false,"name":"New Track","pan":0.0,"solo":false,"volume":0.8999999761581421},{"id":447,"instrument":"built_in_grand_piano","mute":false,"name":"New Track","pan":0.0,"solo":false,"volume":0.8999999761581421}],"ui_state":{"editor":{"chord_palette":{"content_offset":141,"preview":{"octave":4,"strumming":0.0,"velocity":1.0},"relationsMode":0,"selectedScale":{"root":0,"type":{"name":"Major","steps":[2,2,1,2,2,2,1]}}},"chord_symbolisation":1,"current_track":{"trackId":447},"frame":{"_height":343,"_pitchHeight":15.0,"_wholeNoteWidth":130.0,"_width":630,"_x":0,"_y":900},"in_chord_palette":true,"pianoroll":{"velocity_mode":true},"selection":null,"snapping":{"label":"1/8 ","width":0.125}},"window_bounds":{"height":600,"width":900,"x":0,"y":0}}}